<?xml version="1.0" encoding="UTF-8"?>
<!DOCTYPE svg PUBLIC "-//W3C//DTD SVG 1.1//EN" "http://www.w3.org/Graphics/SVG/1.1/DTD/svg11.dtd">
<svg xmlns="http://www.w3.org/2000/svg" version="1.1" width="546px" height="140px" style="shape-rendering:geometricPrecision; text-rendering:geometricPrecision; image-rendering:optimizeQuality; fill-rule:evenodd; clip-rule:evenodd" xmlns:xlink="http://www.w3.org/1999/xlink">
<g><path style="opacity:1" fill="#32b4f6" d="M 107.5,10.5 C 111.5,10.5 115.5,10.5 119.5,10.5C 119.5,30.1667 119.5,49.8333 119.5,69.5C 115.5,69.5 111.5,69.5 107.5,69.5C 107.5,49.8333 107.5,30.1667 107.5,10.5 Z"/></g>
<g><path style="opacity:1" fill="#33b4f6" d="M 515.5,11.5 C 515.5,17.1667 515.5,22.8333 515.5,28.5C 519.371,28.815 523.038,28.4816 526.5,27.5C 528.833,27.5 531.167,27.5 533.5,27.5C 533.666,35.1739 533.5,42.8406 533,50.5C 527.593,51.4732 522.093,51.8066 516.5,51.5C 516.667,71.5028 516.5,91.5028 516,111.5C 508.333,112.833 500.667,112.833 493,111.5C 492.5,91.5028 492.333,71.5028 492.5,51.5C 486.907,51.8066 481.407,51.4732 476,50.5C 475.5,42.8406 475.334,35.1739 475.5,27.5C 481.167,27.5 486.833,27.5 492.5,27.5C 492.5,21.8333 492.5,16.1667 492.5,10.5C 500.352,10.1746 508.018,10.508 515.5,11.5 Z"/></g>
<g><path style="opacity:1" fill="#32b4f6" d="M 44.5,12.5 C 52.1739,12.3336 59.8406,12.5003 67.5,13C 77.8251,15.4642 81.6584,21.9642 79,32.5C 77.6924,34.6414 76.1924,36.6414 74.5,38.5C 84.4084,43.3908 87.2418,51.0575 83,61.5C 81.2352,64.473 78.7352,66.6396 75.5,68C 65.2317,69.3991 54.8983,69.8991 44.5,69.5C 44.5,50.5 44.5,31.5 44.5,12.5 Z M 57.5,22.5 C 66.326,21.7926 68.9926,25.2926 65.5,33C 62.9865,34.2525 60.3198,34.7525 57.5,34.5C 57.5,30.5 57.5,26.5 57.5,22.5 Z M 57.5,46.5 C 61.9113,46.021 66.078,46.6876 70,48.5C 72.1539,52.0584 71.6539,55.2251 68.5,58C 64.9743,59.3368 61.3076,59.8368 57.5,59.5C 57.5,55.1667 57.5,50.8333 57.5,46.5 Z"/></g>
<g><path style="opacity:0.996" fill="#d7d7d7" d="M 390.5,14.5 C 397.422,14.1878 404.256,14.5212 411,15.5C 411.017,29.6536 411.684,43.6536 413,57.5C 426.951,47.003 441.118,46.8363 455.5,57C 463.591,64.0137 468.425,72.847 470,83.5C 470.667,98.1667 470.667,112.833 470,127.5C 463.864,128.186 457.698,128.853 451.5,129.5C 450.914,129.291 450.414,128.957 450,128.5C 449.667,115.167 449.333,101.833 449,88.5C 445.549,70.1946 435.382,64.6946 418.5,72C 415.067,75.1039 412.9,78.9372 412,83.5C 411.5,98.4963 411.333,113.496 411.5,128.5C 404.499,128.501 397.499,128.501 390.5,128.5C 389.877,90.4455 389.877,52.4455 390.5,14.5 Z"/></g>
<g><path style="opacity:0.994" fill="#d7d7d7" d="M 311.5,16.5 C 318.272,15.6362 323.105,18.3029 326,24.5C 327.754,32.1576 324.921,37.3243 317.5,40C 310.318,40.4938 305.484,37.3271 303,30.5C 302.294,28.0288 302.627,25.6954 304,23.5C 306.396,20.9334 308.896,18.6 311.5,16.5 Z"/></g>
<g><path style="opacity:0.997" fill="#d7d7d7" d="M 145.5,127.5 C 146.625,126.348 146.625,125.348 145.5,124.5C 146.653,122.193 147.82,119.86 149,117.5C 149.5,103.171 149.667,88.8372 149.5,74.5C 145.5,74.5 141.5,74.5 137.5,74.5C 136.538,55.8674 136.205,37.2007 136.5,18.5C 159.502,18.3334 182.502,18.5 205.5,19C 206.48,26.0787 206.813,33.2454 206.5,40.5C 191.167,40.5 175.833,40.5 160.5,40.5C 160.5,46.8333 160.5,53.1667 160.5,59.5C 173.833,59.5 187.167,59.5 200.5,59.5C 200.813,66.7546 200.48,73.9213 199.5,81C 186.504,81.4999 173.504,81.6666 160.5,81.5C 160.833,97.1808 160.499,112.848 159.5,128.5C 158.707,128.931 157.873,129.265 157,129.5C 153.015,128.928 149.182,128.261 145.5,127.5 Z"/></g>
<g><path style="opacity:0.983" fill="#5ec2f5" d="M 515.5,11.5 C 516.488,16.6405 516.821,21.9738 516.5,27.5C 519.833,27.5 523.167,27.5 526.5,27.5C 523.038,28.4816 519.371,28.815 515.5,28.5C 515.5,22.8333 515.5,17.1667 515.5,11.5 Z"/></g>
<g><path style="opacity:0.999" fill="#d7d7d7" d="M 343.5,34.5 C 350.5,34.5 357.5,34.5 364.5,34.5C 364.334,39.8437 364.501,45.1771 365,50.5C 371.419,51.3129 377.919,51.8129 384.5,52C 385.833,58 385.833,64 384.5,70C 377.842,70.4996 371.175,70.6663 364.5,70.5C 364.059,83.2414 364.559,95.908 366,108.5C 367.543,110.378 369.376,111.878 371.5,113C 376.201,113.375 380.701,113.542 385,113.5C 385.667,118.5 385.667,123.5 385,128.5C 380.157,130.914 374.99,131.914 369.5,131.5C 355.366,132.533 346.866,126.2 344,112.5C 343.5,98.504 343.333,84.504 343.5,70.5C 339.833,70.5 336.167,70.5 332.5,70.5C 332.334,65.8215 332.501,61.1548 333,56.5C 336.636,54.8604 339.97,52.8604 343,50.5C 343.254,45.0499 343.421,39.7165 343.5,34.5 Z"/></g>
<g><path style="opacity:0.998" fill="#d7d7d7" d="M 242.5,49.5 C 253.319,48.6075 262.819,51.6075 271,58.5C 272.164,56.3512 273.33,54.1846 274.5,52C 280.416,51.1928 286.25,51.3594 292,52.5C 292.827,77.739 292.661,102.906 291.5,128C 285.537,130.156 279.704,129.99 274,127.5C 273.64,125.579 272.806,123.912 271.5,122.5C 256.573,133.823 241.239,134.323 225.5,124C 207.362,107.308 204.195,88.1409 216,66.5C 222.769,57.3793 231.603,51.7126 242.5,49.5 Z M 244.5,68.5 C 261.234,66.1792 270.234,73.3459 271.5,90C 269.501,109.503 259.167,116.169 240.5,110C 229.836,100.997 227.669,90.1636 234,77.5C 237.103,73.886 240.603,70.886 244.5,68.5 Z"/></g>
<g><path style="opacity:0.999" fill="#d7d7d7" d="M 304.5,51.5 C 311.422,51.1878 318.256,51.5212 325,52.5C 325.827,77.739 325.661,102.906 324.5,128C 318.782,128.211 313.115,128.711 307.5,129.5C 306.833,129.167 306.167,128.833 305.5,128.5C 304.5,102.842 304.167,77.1753 304.5,51.5 Z"/></g>
<g><path style="opacity:1" fill="#31b4f6" d="M 56.5,73.5 C 69.5362,70.6574 79.0362,74.9907 85,86.5C 87.5384,99.5972 82.3718,107.764 69.5,111C 57.4701,113.4 48.6367,109.233 43,98.5C 40.7492,86.3251 45.2492,77.9918 56.5,73.5 Z M 61.5,83.5 C 69.472,83.6364 72.972,87.6364 72,95.5C 69.1034,100.155 64.9367,101.655 59.5,100C 53.7986,93.7109 54.4653,88.2109 61.5,83.5 Z"/></g>
<g><path style="opacity:0.999" fill="#32b4f6" d="M 137.5,74.5 C 141.5,74.5 145.5,74.5 149.5,74.5C 149.667,88.8372 149.5,103.171 149,117.5C 147.82,119.86 146.653,122.193 145.5,124.5C 144.29,124.932 143.29,125.599 142.5,126.5C 133.342,131.36 124.009,131.527 114.5,127C 112.316,124.984 110.316,122.817 108.5,120.5C 111.377,118.139 114.544,116.139 118,114.5C 123.775,120.33 129.775,120.663 136,115.5C 138.776,108.938 137.276,107.438 131.5,111C 117.152,113.307 109.152,107.307 107.5,93C 108.248,77.6163 116.248,71.283 131.5,74C 133.081,74.7065 134.581,75.5399 136,76.5C 136.717,75.9558 137.217,75.2891 137.5,74.5 Z M 126.5,83.5 C 134.472,83.6364 137.972,87.6364 137,95.5C 134.103,100.155 129.937,101.655 124.5,100C 118.799,93.7109 119.465,88.2109 126.5,83.5 Z"/></g>
<g><path style="opacity:0.09" fill="#80bddd" d="M 145.5,124.5 C 146.625,125.348 146.625,126.348 145.5,127.5C 144.609,126.89 143.609,126.557 142.5,126.5C 143.29,125.599 144.29,124.932 145.5,124.5 Z"/></g>
</svg>
